<mxfile host="app.diagrams.net" modified="2024-01-10T14:42:44.825Z" agent="Mozilla/5.0 (Windows NT 10.0; Win64; x64; rv:120.0) Gecko/20100101 Firefox/120.0" etag="aPsGriquyMSRiypRqspi" version="22.1.18" type="github">
  <diagram name="Page-1" id="ll99IVBBSJAd6gjB0LKV">
    <mxGraphModel dx="2924" dy="2214" grid="1" gridSize="10" guides="1" tooltips="1" connect="1" arrows="1" fold="1" page="1" pageScale="1" pageWidth="850" pageHeight="1100" math="0" shadow="0">
      <root>
        <mxCell id="0" />
        <mxCell id="1" parent="0" />
        <mxCell id="0UN9vaB2aTrQ1TQDtryz-30" value="Circuit 1" style="swimlane;whiteSpace=wrap;html=1;fillColor=#dae8fc;strokeColor=#6c8ebf;dashed=1;" vertex="1" parent="1">
          <mxGeometry x="50" y="420" width="520" height="370" as="geometry" />
        </mxCell>
        <mxCell id="0UN9vaB2aTrQ1TQDtryz-31" value="Circuit 2" style="swimlane;whiteSpace=wrap;html=1;fillColor=#ffe6cc;strokeColor=#d79b00;dashed=1;" vertex="1" parent="1">
          <mxGeometry x="410" y="540" width="545" height="240" as="geometry" />
        </mxCell>
        <mxCell id="0UN9vaB2aTrQ1TQDtryz-32" value="Circuit 3" style="swimlane;whiteSpace=wrap;html=1;fillColor=none;strokeColor=#82b366;dashed=1;" vertex="1" parent="0UN9vaB2aTrQ1TQDtryz-31">
          <mxGeometry x="355" y="-120" width="190" height="240" as="geometry">
            <mxRectangle x="650" y="420" width="90" height="30" as="alternateBounds" />
          </mxGeometry>
        </mxCell>
        <mxCell id="0UN9vaB2aTrQ1TQDtryz-6" value="C" style="ellipse;whiteSpace=wrap;html=1;aspect=fixed;" vertex="1" parent="0UN9vaB2aTrQ1TQDtryz-31">
          <mxGeometry x="410" y="-85" width="80" height="80" as="geometry" />
        </mxCell>
        <mxCell id="0UN9vaB2aTrQ1TQDtryz-7" value="D" style="ellipse;whiteSpace=wrap;html=1;aspect=fixed;" vertex="1" parent="0UN9vaB2aTrQ1TQDtryz-31">
          <mxGeometry x="250" y="30" width="80" height="80" as="geometry" />
        </mxCell>
        <mxCell id="0UN9vaB2aTrQ1TQDtryz-14" value="3" style="rounded=1;whiteSpace=wrap;html=1;" vertex="1" parent="0UN9vaB2aTrQ1TQDtryz-31">
          <mxGeometry x="390" y="40" width="120" height="60" as="geometry" />
        </mxCell>
        <mxCell id="0UN9vaB2aTrQ1TQDtryz-27" value="" style="endArrow=none;html=1;rounded=0;entryX=0.5;entryY=1;entryDx=0;entryDy=0;exitX=0.5;exitY=0;exitDx=0;exitDy=0;" edge="1" parent="0UN9vaB2aTrQ1TQDtryz-31" source="0UN9vaB2aTrQ1TQDtryz-14" target="0UN9vaB2aTrQ1TQDtryz-6">
          <mxGeometry width="50" height="50" relative="1" as="geometry">
            <mxPoint x="110" y="-10" as="sourcePoint" />
            <mxPoint x="160" y="-60" as="targetPoint" />
          </mxGeometry>
        </mxCell>
        <mxCell id="0UN9vaB2aTrQ1TQDtryz-29" value="" style="endArrow=classic;html=1;rounded=0;exitX=1;exitY=0.5;exitDx=0;exitDy=0;entryX=0;entryY=0.5;entryDx=0;entryDy=0;" edge="1" parent="0UN9vaB2aTrQ1TQDtryz-31" source="0UN9vaB2aTrQ1TQDtryz-7" target="0UN9vaB2aTrQ1TQDtryz-14">
          <mxGeometry width="50" height="50" relative="1" as="geometry">
            <mxPoint x="110" y="-90" as="sourcePoint" />
            <mxPoint x="160" y="-140" as="targetPoint" />
            <Array as="points" />
          </mxGeometry>
        </mxCell>
        <mxCell id="0UN9vaB2aTrQ1TQDtryz-1" value="GENERATOR" style="ellipse;whiteSpace=wrap;html=1;aspect=fixed;" vertex="1" parent="1">
          <mxGeometry x="-120" y="480" width="80" height="80" as="geometry" />
        </mxCell>
        <mxCell id="0UN9vaB2aTrQ1TQDtryz-2" value="Battery" style="shape=cylinder3;whiteSpace=wrap;html=1;boundedLbl=1;backgroundOutline=1;size=15;" vertex="1" parent="1">
          <mxGeometry x="-110" y="570" width="60" height="80" as="geometry" />
        </mxCell>
        <mxCell id="0UN9vaB2aTrQ1TQDtryz-3" value="Consumer" style="rounded=1;whiteSpace=wrap;html=1;" vertex="1" parent="1">
          <mxGeometry x="-140" y="660" width="120" height="60" as="geometry" />
        </mxCell>
        <mxCell id="0UN9vaB2aTrQ1TQDtryz-4" value="A" style="ellipse;whiteSpace=wrap;html=1;aspect=fixed;" vertex="1" parent="1">
          <mxGeometry x="80" y="585" width="80" height="80" as="geometry" />
        </mxCell>
        <mxCell id="0UN9vaB2aTrQ1TQDtryz-5" value="B" style="ellipse;whiteSpace=wrap;html=1;aspect=fixed;" vertex="1" parent="1">
          <mxGeometry x="190" y="585" width="80" height="80" as="geometry" />
        </mxCell>
        <mxCell id="0UN9vaB2aTrQ1TQDtryz-8" value="B1" style="shape=cylinder3;whiteSpace=wrap;html=1;boundedLbl=1;backgroundOutline=1;size=15;" vertex="1" parent="1">
          <mxGeometry x="305" y="455" width="60" height="80" as="geometry" />
        </mxCell>
        <mxCell id="0UN9vaB2aTrQ1TQDtryz-9" value="&lt;div&gt;B2&lt;/div&gt;" style="shape=cylinder3;whiteSpace=wrap;html=1;boundedLbl=1;backgroundOutline=1;size=15;" vertex="1" parent="1">
          <mxGeometry x="570" y="150" width="60" height="80" as="geometry" />
        </mxCell>
        <mxCell id="0UN9vaB2aTrQ1TQDtryz-10" value="1" style="rounded=1;whiteSpace=wrap;html=1;" vertex="1" parent="1">
          <mxGeometry x="260" y="705" width="120" height="60" as="geometry" />
        </mxCell>
        <mxCell id="0UN9vaB2aTrQ1TQDtryz-15" value="2" style="rounded=1;whiteSpace=wrap;html=1;" vertex="1" parent="1">
          <mxGeometry x="415" y="705" width="120" height="60" as="geometry" />
        </mxCell>
        <mxCell id="0UN9vaB2aTrQ1TQDtryz-16" value="4" style="rounded=1;whiteSpace=wrap;html=1;" vertex="1" parent="1">
          <mxGeometry x="840" y="110" width="120" height="60" as="geometry" />
        </mxCell>
        <mxCell id="0UN9vaB2aTrQ1TQDtryz-17" value="5" style="rounded=1;whiteSpace=wrap;html=1;" vertex="1" parent="1">
          <mxGeometry x="700" y="190" width="120" height="60" as="geometry" />
        </mxCell>
        <mxCell id="0UN9vaB2aTrQ1TQDtryz-19" value="6" style="rounded=1;whiteSpace=wrap;html=1;" vertex="1" parent="1">
          <mxGeometry x="840" y="190" width="120" height="60" as="geometry" />
        </mxCell>
        <mxCell id="0UN9vaB2aTrQ1TQDtryz-21" value="" style="endArrow=none;html=1;rounded=0;exitX=1;exitY=0.5;exitDx=0;exitDy=0;" edge="1" parent="1" source="0UN9vaB2aTrQ1TQDtryz-4" target="0UN9vaB2aTrQ1TQDtryz-5">
          <mxGeometry width="50" height="50" relative="1" as="geometry">
            <mxPoint x="215" y="565" as="sourcePoint" />
            <mxPoint x="265" y="515" as="targetPoint" />
          </mxGeometry>
        </mxCell>
        <mxCell id="0UN9vaB2aTrQ1TQDtryz-24" value="" style="endArrow=none;html=1;rounded=0;exitX=1;exitY=0.5;exitDx=0;exitDy=0;entryX=0.5;entryY=1;entryDx=0;entryDy=0;entryPerimeter=0;" edge="1" parent="1" source="0UN9vaB2aTrQ1TQDtryz-5" target="0UN9vaB2aTrQ1TQDtryz-8">
          <mxGeometry width="50" height="50" relative="1" as="geometry">
            <mxPoint x="337.5" y="685" as="sourcePoint" />
            <mxPoint x="332.5" y="575" as="targetPoint" />
            <Array as="points">
              <mxPoint x="335" y="625" />
            </Array>
          </mxGeometry>
        </mxCell>
        <mxCell id="0UN9vaB2aTrQ1TQDtryz-25" value="" style="endArrow=none;html=1;rounded=0;exitX=0.5;exitY=1;exitDx=0;exitDy=0;entryX=0;entryY=0.5;entryDx=0;entryDy=0;" edge="1" parent="1" source="0UN9vaB2aTrQ1TQDtryz-5" target="0UN9vaB2aTrQ1TQDtryz-10">
          <mxGeometry width="50" height="50" relative="1" as="geometry">
            <mxPoint x="215" y="565" as="sourcePoint" />
            <mxPoint x="325" y="735" as="targetPoint" />
            <Array as="points">
              <mxPoint x="230" y="735" />
            </Array>
          </mxGeometry>
        </mxCell>
        <mxCell id="0UN9vaB2aTrQ1TQDtryz-26" value="" style="endArrow=none;html=1;rounded=0;exitX=1;exitY=0.5;exitDx=0;exitDy=0;entryX=0;entryY=0.5;entryDx=0;entryDy=0;" edge="1" parent="1" source="0UN9vaB2aTrQ1TQDtryz-10" target="0UN9vaB2aTrQ1TQDtryz-15">
          <mxGeometry width="50" height="50" relative="1" as="geometry">
            <mxPoint x="325" y="530" as="sourcePoint" />
            <mxPoint x="375" y="480" as="targetPoint" />
          </mxGeometry>
        </mxCell>
        <mxCell id="0UN9vaB2aTrQ1TQDtryz-28" value="" style="endArrow=classic;html=1;rounded=0;entryX=0.5;entryY=0;entryDx=0;entryDy=0;exitX=0;exitY=0.5;exitDx=0;exitDy=0;" edge="1" parent="1" source="0UN9vaB2aTrQ1TQDtryz-7" target="0UN9vaB2aTrQ1TQDtryz-15">
          <mxGeometry width="50" height="50" relative="1" as="geometry">
            <mxPoint x="400" y="530" as="sourcePoint" />
            <mxPoint x="450" y="480" as="targetPoint" />
            <Array as="points">
              <mxPoint x="475" y="610" />
            </Array>
          </mxGeometry>
        </mxCell>
        <mxCell id="0UN9vaB2aTrQ1TQDtryz-33" value="Circuit 1" style="swimlane;whiteSpace=wrap;html=1;fillColor=#dae8fc;strokeColor=#6c8ebf;dashed=1;" vertex="1" parent="1">
          <mxGeometry x="-105" y="-20" width="520" height="370" as="geometry" />
        </mxCell>
        <mxCell id="0UN9vaB2aTrQ1TQDtryz-51" value="Circuit 1" style="swimlane;whiteSpace=wrap;html=1;fillColor=#dae8fc;strokeColor=#6c8ebf;dashed=1;" vertex="1" parent="1">
          <mxGeometry x="40" y="840" width="520" height="420" as="geometry" />
        </mxCell>
        <mxCell id="0UN9vaB2aTrQ1TQDtryz-52" value="A" style="ellipse;whiteSpace=wrap;html=1;aspect=fixed;" vertex="1" parent="1">
          <mxGeometry x="70" y="1005" width="80" height="80" as="geometry" />
        </mxCell>
        <mxCell id="0UN9vaB2aTrQ1TQDtryz-53" value="B" style="ellipse;whiteSpace=wrap;html=1;aspect=fixed;" vertex="1" parent="1">
          <mxGeometry x="180" y="1005" width="80" height="80" as="geometry" />
        </mxCell>
        <mxCell id="0UN9vaB2aTrQ1TQDtryz-54" value="B1" style="shape=cylinder3;whiteSpace=wrap;html=1;boundedLbl=1;backgroundOutline=1;size=15;" vertex="1" parent="1">
          <mxGeometry x="295" y="875" width="60" height="80" as="geometry" />
        </mxCell>
        <mxCell id="0UN9vaB2aTrQ1TQDtryz-55" value="1" style="rounded=1;whiteSpace=wrap;html=1;" vertex="1" parent="1">
          <mxGeometry x="250" y="1125" width="120" height="60" as="geometry" />
        </mxCell>
        <mxCell id="0UN9vaB2aTrQ1TQDtryz-56" value="2" style="rounded=1;whiteSpace=wrap;html=1;" vertex="1" parent="1">
          <mxGeometry x="405" y="1125" width="120" height="60" as="geometry" />
        </mxCell>
        <mxCell id="0UN9vaB2aTrQ1TQDtryz-57" value="" style="endArrow=none;html=1;rounded=0;exitX=1;exitY=0.5;exitDx=0;exitDy=0;" edge="1" parent="1" source="0UN9vaB2aTrQ1TQDtryz-52" target="0UN9vaB2aTrQ1TQDtryz-53">
          <mxGeometry width="50" height="50" relative="1" as="geometry">
            <mxPoint x="205" y="985" as="sourcePoint" />
            <mxPoint x="255" y="935" as="targetPoint" />
          </mxGeometry>
        </mxCell>
        <mxCell id="0UN9vaB2aTrQ1TQDtryz-58" value="" style="endArrow=none;html=1;rounded=0;exitX=1;exitY=0.5;exitDx=0;exitDy=0;entryX=0.5;entryY=1;entryDx=0;entryDy=0;entryPerimeter=0;" edge="1" parent="1" source="0UN9vaB2aTrQ1TQDtryz-53" target="0UN9vaB2aTrQ1TQDtryz-54">
          <mxGeometry width="50" height="50" relative="1" as="geometry">
            <mxPoint x="327.5" y="1105" as="sourcePoint" />
            <mxPoint x="322.5" y="995" as="targetPoint" />
            <Array as="points">
              <mxPoint x="325" y="1045" />
            </Array>
          </mxGeometry>
        </mxCell>
        <mxCell id="0UN9vaB2aTrQ1TQDtryz-59" value="" style="endArrow=none;html=1;rounded=0;exitX=0.5;exitY=1;exitDx=0;exitDy=0;entryX=0;entryY=0.5;entryDx=0;entryDy=0;" edge="1" parent="1" source="0UN9vaB2aTrQ1TQDtryz-53" target="0UN9vaB2aTrQ1TQDtryz-55">
          <mxGeometry width="50" height="50" relative="1" as="geometry">
            <mxPoint x="205" y="985" as="sourcePoint" />
            <mxPoint x="315" y="1155" as="targetPoint" />
            <Array as="points">
              <mxPoint x="220" y="1155" />
            </Array>
          </mxGeometry>
        </mxCell>
        <mxCell id="0UN9vaB2aTrQ1TQDtryz-60" value="" style="endArrow=none;html=1;rounded=0;exitX=1;exitY=0.5;exitDx=0;exitDy=0;entryX=0;entryY=0.5;entryDx=0;entryDy=0;" edge="1" parent="1" source="0UN9vaB2aTrQ1TQDtryz-55" target="0UN9vaB2aTrQ1TQDtryz-56">
          <mxGeometry width="50" height="50" relative="1" as="geometry">
            <mxPoint x="315" y="950" as="sourcePoint" />
            <mxPoint x="365" y="900" as="targetPoint" />
          </mxGeometry>
        </mxCell>
        <mxCell id="0UN9vaB2aTrQ1TQDtryz-62" value="Circuit 1" style="swimlane;whiteSpace=wrap;html=1;fillColor=#dae8fc;strokeColor=#6c8ebf;dashed=1;" vertex="1" parent="1">
          <mxGeometry y="1300" width="520" height="370" as="geometry" />
        </mxCell>
        <mxCell id="0UN9vaB2aTrQ1TQDtryz-63" value="Circuit 2" style="swimlane;whiteSpace=wrap;html=1;fillColor=#ffe6cc;strokeColor=#d79b00;dashed=1;" vertex="1" parent="1">
          <mxGeometry x="360" y="1420" width="350" height="240" as="geometry" />
        </mxCell>
        <mxCell id="0UN9vaB2aTrQ1TQDtryz-66" value="D" style="ellipse;whiteSpace=wrap;html=1;aspect=fixed;" vertex="1" parent="0UN9vaB2aTrQ1TQDtryz-63">
          <mxGeometry x="250" y="30" width="80" height="80" as="geometry" />
        </mxCell>
        <mxCell id="0UN9vaB2aTrQ1TQDtryz-70" value="GENERATOR" style="ellipse;whiteSpace=wrap;html=1;aspect=fixed;" vertex="1" parent="1">
          <mxGeometry x="-170" y="1360" width="80" height="80" as="geometry" />
        </mxCell>
        <mxCell id="0UN9vaB2aTrQ1TQDtryz-71" value="Battery" style="shape=cylinder3;whiteSpace=wrap;html=1;boundedLbl=1;backgroundOutline=1;size=15;" vertex="1" parent="1">
          <mxGeometry x="-160" y="1450" width="60" height="80" as="geometry" />
        </mxCell>
        <mxCell id="0UN9vaB2aTrQ1TQDtryz-72" value="Consumer" style="rounded=1;whiteSpace=wrap;html=1;" vertex="1" parent="1">
          <mxGeometry x="-190" y="1540" width="120" height="60" as="geometry" />
        </mxCell>
        <mxCell id="0UN9vaB2aTrQ1TQDtryz-73" value="A" style="ellipse;whiteSpace=wrap;html=1;aspect=fixed;" vertex="1" parent="1">
          <mxGeometry x="30" y="1465" width="80" height="80" as="geometry" />
        </mxCell>
        <mxCell id="0UN9vaB2aTrQ1TQDtryz-74" value="B" style="ellipse;whiteSpace=wrap;html=1;aspect=fixed;" vertex="1" parent="1">
          <mxGeometry x="140" y="1465" width="80" height="80" as="geometry" />
        </mxCell>
        <mxCell id="0UN9vaB2aTrQ1TQDtryz-75" value="B1" style="shape=cylinder3;whiteSpace=wrap;html=1;boundedLbl=1;backgroundOutline=1;size=15;" vertex="1" parent="1">
          <mxGeometry x="255" y="1335" width="60" height="80" as="geometry" />
        </mxCell>
        <mxCell id="0UN9vaB2aTrQ1TQDtryz-76" value="1" style="rounded=1;whiteSpace=wrap;html=1;" vertex="1" parent="1">
          <mxGeometry x="210" y="1585" width="120" height="60" as="geometry" />
        </mxCell>
        <mxCell id="0UN9vaB2aTrQ1TQDtryz-77" value="2" style="rounded=1;whiteSpace=wrap;html=1;" vertex="1" parent="1">
          <mxGeometry x="365" y="1585" width="120" height="60" as="geometry" />
        </mxCell>
        <mxCell id="0UN9vaB2aTrQ1TQDtryz-78" value="" style="endArrow=none;html=1;rounded=0;exitX=1;exitY=0.5;exitDx=0;exitDy=0;fillColor=#dae8fc;strokeColor=#6c8ebf;" edge="1" parent="1" source="0UN9vaB2aTrQ1TQDtryz-73" target="0UN9vaB2aTrQ1TQDtryz-74">
          <mxGeometry width="50" height="50" relative="1" as="geometry">
            <mxPoint x="165" y="1445" as="sourcePoint" />
            <mxPoint x="215" y="1395" as="targetPoint" />
          </mxGeometry>
        </mxCell>
        <mxCell id="0UN9vaB2aTrQ1TQDtryz-79" value="" style="endArrow=none;html=1;rounded=0;exitX=1;exitY=0.5;exitDx=0;exitDy=0;entryX=0.5;entryY=1;entryDx=0;entryDy=0;entryPerimeter=0;fillColor=#dae8fc;strokeColor=#6c8ebf;" edge="1" parent="1" source="0UN9vaB2aTrQ1TQDtryz-74" target="0UN9vaB2aTrQ1TQDtryz-75">
          <mxGeometry width="50" height="50" relative="1" as="geometry">
            <mxPoint x="287.5" y="1565" as="sourcePoint" />
            <mxPoint x="282.5" y="1455" as="targetPoint" />
            <Array as="points">
              <mxPoint x="285" y="1505" />
            </Array>
          </mxGeometry>
        </mxCell>
        <mxCell id="0UN9vaB2aTrQ1TQDtryz-80" value="" style="endArrow=none;html=1;rounded=0;exitX=0.5;exitY=1;exitDx=0;exitDy=0;entryX=0;entryY=0.5;entryDx=0;entryDy=0;fillColor=#dae8fc;strokeColor=#6c8ebf;" edge="1" parent="1" source="0UN9vaB2aTrQ1TQDtryz-74" target="0UN9vaB2aTrQ1TQDtryz-76">
          <mxGeometry width="50" height="50" relative="1" as="geometry">
            <mxPoint x="165" y="1445" as="sourcePoint" />
            <mxPoint x="275" y="1615" as="targetPoint" />
            <Array as="points">
              <mxPoint x="180" y="1615" />
            </Array>
          </mxGeometry>
        </mxCell>
        <mxCell id="0UN9vaB2aTrQ1TQDtryz-81" value="" style="endArrow=none;html=1;rounded=0;exitX=1;exitY=0.5;exitDx=0;exitDy=0;entryX=0;entryY=0.5;entryDx=0;entryDy=0;fillColor=#dae8fc;strokeColor=#6c8ebf;" edge="1" parent="1" source="0UN9vaB2aTrQ1TQDtryz-76" target="0UN9vaB2aTrQ1TQDtryz-77">
          <mxGeometry width="50" height="50" relative="1" as="geometry">
            <mxPoint x="275" y="1410" as="sourcePoint" />
            <mxPoint x="325" y="1360" as="targetPoint" />
          </mxGeometry>
        </mxCell>
        <mxCell id="0UN9vaB2aTrQ1TQDtryz-83" value="" style="endArrow=none;dashed=1;html=1;dashPattern=1 3;strokeWidth=2;rounded=0;exitX=0;exitY=0.5;exitDx=0;exitDy=0;entryX=1;entryY=0.5;entryDx=0;entryDy=0;fillColor=#dae8fc;strokeColor=#6c8ebf;" edge="1" parent="1" source="0UN9vaB2aTrQ1TQDtryz-76" target="0UN9vaB2aTrQ1TQDtryz-76">
          <mxGeometry width="50" height="50" relative="1" as="geometry">
            <mxPoint x="400" y="1260" as="sourcePoint" />
            <mxPoint x="450" y="1210" as="targetPoint" />
          </mxGeometry>
        </mxCell>
        <mxCell id="0UN9vaB2aTrQ1TQDtryz-82" value="" style="endArrow=classic;html=1;rounded=0;entryX=0.5;entryY=0;entryDx=0;entryDy=0;exitX=0;exitY=0.5;exitDx=0;exitDy=0;" edge="1" parent="1" source="0UN9vaB2aTrQ1TQDtryz-66" target="0UN9vaB2aTrQ1TQDtryz-77">
          <mxGeometry width="50" height="50" relative="1" as="geometry">
            <mxPoint x="350" y="1410" as="sourcePoint" />
            <mxPoint x="400" y="1360" as="targetPoint" />
            <Array as="points">
              <mxPoint x="425" y="1490" />
            </Array>
          </mxGeometry>
        </mxCell>
        <mxCell id="0UN9vaB2aTrQ1TQDtryz-84" value="" style="endArrow=none;dashed=1;html=1;dashPattern=1 3;strokeWidth=2;rounded=0;exitX=0;exitY=0.5;exitDx=0;exitDy=0;entryX=1;entryY=0.5;entryDx=0;entryDy=0;fillColor=#dae8fc;strokeColor=#6c8ebf;" edge="1" parent="1" source="0UN9vaB2aTrQ1TQDtryz-74" target="0UN9vaB2aTrQ1TQDtryz-74">
          <mxGeometry width="50" height="50" relative="1" as="geometry">
            <mxPoint x="220" y="1625" as="sourcePoint" />
            <mxPoint x="340" y="1625" as="targetPoint" />
          </mxGeometry>
        </mxCell>
        <mxCell id="0UN9vaB2aTrQ1TQDtryz-85" value="" style="endArrow=none;dashed=1;html=1;dashPattern=1 3;strokeWidth=2;rounded=0;entryX=0.5;entryY=1;entryDx=0;entryDy=0;fillColor=#dae8fc;strokeColor=#6c8ebf;" edge="1" parent="1" target="0UN9vaB2aTrQ1TQDtryz-74">
          <mxGeometry width="50" height="50" relative="1" as="geometry">
            <mxPoint x="180" y="1510" as="sourcePoint" />
            <mxPoint x="230" y="1515" as="targetPoint" />
          </mxGeometry>
        </mxCell>
      </root>
    </mxGraphModel>
  </diagram>
</mxfile>
